<?xml version="1.0" standalone="no"?>
<!DOCTYPE svg PUBLIC "-//W3C//DTD SVG 20010904//EN"
 "http://www.w3.org/TR/2001/REC-SVG-20010904/DTD/svg10.dtd">
<svg version="1.0" xmlns="http://www.w3.org/2000/svg"
 width="161.000000pt" height="150.000000pt" viewBox="0 0 161.000000 150.000000"
 preserveAspectRatio="xMidYMid meet">

<g transform="translate(0.000000,150.000000) scale(0.100000,-0.100000)"
fill="#000000" stroke="none">
<path d="M665 1463 c-11 -2 -38 -9 -59 -15 l-39 -10 75 -76 75 -77 -79 -74
-79 -75 -97 97 -98 98 -47 -44 -47 -43 100 -99 100 -100 -77 -77 -78 -78 -82
82 c-45 45 -84 80 -86 77 -3 -2 -14 -31 -26 -63 l-22 -59 63 -64 62 -63 -49
-51 c-28 -29 -58 -61 -68 -71 -20 -21 -17 -73 7 -131 l11 -28 95 96 95 95 77
-77 78 -78 -120 -120 -121 -121 42 -48 42 -48 124 124 123 123 90 -90 90 -90
0 -127 0 -128 65 0 65 0 0 128 0 127 90 90 90 90 123 -123 124 -124 42 48 42
48 -121 121 -120 120 78 78 77 77 95 -95 c104 -105 103 -105 122 -10 l11 56
-69 70 -68 69 62 63 63 64 -22 59 c-12 32 -23 61 -26 63 -2 3 -41 -32 -86 -77
l-82 -82 -78 78 -77 77 95 95 c52 52 95 99 95 104 0 5 -19 27 -42 48 l-42 39
-98 -98 -98 -98 -77 78 -78 77 73 73 73 74 -38 10 c-100 29 -101 29 -152 -21
l-47 -46 -44 45 c-43 44 -53 48 -95 38z m218 -495 l-78 -78 -77 77 -78 78 77
77 78 78 77 -77 78 -78 -77 -77z m-243 -93 l75 -75 -78 -78 -77 -77 -77 77
-78 78 75 75 c41 41 77 75 80 75 3 0 39 -34 80 -75z m490 0 l75 -75 -78 -78
-77 -77 -77 77 -78 78 75 75 c41 41 77 75 80 75 3 0 39 -34 80 -75z m-247
-397 l-78 -78 -77 77 -78 78 77 77 78 78 77 -77 78 -78 -77 -77z"/>
</g>
</svg>
